<?xml version="1.0" encoding="iso-8859-1"?>
<!-- Generator: Adobe Illustrator 23.0.0, SVG Export Plug-In . SVG Version: 6.00 Build 0)  -->
<svg version="1.1" id="Layer_1" xmlns="http://www.w3.org/2000/svg" xmlns:xlink="http://www.w3.org/1999/xlink" x="0px" y="0px"
	 viewBox="0 0 2500 2500" style="enable-background:new 0 0 2500 2500;" xml:space="preserve">
<path style="fill:#0F4025;" d="M1251,1250.88c-0.06,0.08-0.12,0.16-0.17,0.24c-0.69-0.67-1.29-1.44-1.83-2.24L1251,1250.88z"/>
<g>
	<g>
		<g>
			<polygon style="fill:#0A3C26;" points="684.76,1412.889 456.042,1412.889 456.042,1268.821 427.305,1297.558 427.305,1412.889 
				427.305,1441.626 456.042,1441.626 684.76,1441.626 713.498,1441.626 713.498,1412.889 713.498,1297.57 684.76,1268.833 			"/>
			<path style="fill:#0A3C26;" d="M550.083,1134.145l20.31-20.31l-0.31-0.322l0.31-0.31l0.322,0.31l-0.322,0.322l20.322,20.31
				l0.31-0.31l31.288,31.288c5.304-9.405,10.596-17.629,15.829-24.816l-26.794-26.794l-20.322-20.31l-0.31-0.322l-20.322-20.31
				l-20.31,20.31l-0.322,0.322l-20.31,20.31l-155.308,155.308h40.633l134.986-134.986L550.083,1134.145z"/>
			<path style="fill:#0A3C26;" d="M650.133,1152.298l-1.144-1.132c-9.643,12.42-16.186,22.205-16.997,23.421
				c-0.06,0.084-0.083,0.131-0.083,0.131l94.103,94.103h40.645L650.133,1152.298z"/>
		</g>
		<path style="fill:#A9C24B;" d="M760.923,1058.374c-1.597,16.639-5.221,33.302-13.04,48.082
			c-6.877,13.028-17.116,24.458-29.977,31.634c-15.638,8.737-34.292,10.787-52.147,9.214c-3.278-0.286-6.687-0.739-9.488-2.443
			c-0.095-0.048-0.179-0.107-0.274-0.167c-0.417-0.262-0.81-0.56-1.192-0.882c18.403-22.682,44.447-49.846,64.829-51.563
			c0,0-33.255-9.607-72.493,36.58c-1.49-7.855-0.238-16.341,2.956-23.755c4.458-10.346,12.813-20.715,22.086-27.14
			c9.547-6.615,21.276-6.138,32.373-6.496C723.961,1070.806,743.223,1066.336,760.923,1058.374z"/>
	</g>
	<g>
		<path style="fill:#0A3C26;" d="M942.094,1248.584c5.142-4.994,11.271-8.853,18.386-11.577c7.111-2.724,14.829-4.086,23.153-4.086
			c8.626,0,16.532,1.475,23.721,4.427c7.186,2.951,13.882,7.53,20.089,13.733l18.613-18.159
			c-7.416-8.473-16.535-14.904-27.353-19.294c-10.822-4.388-22.966-6.583-36.433-6.583c-12.41,0-23.834,2.007-34.276,6.016
			c-10.442,4.011-19.56,9.686-27.353,17.025c-7.796,7.342-13.811,16.003-18.046,25.991c-4.239,9.988-6.356,20.883-6.356,32.687
			c0,11.803,2.117,22.699,6.356,32.687c4.235,9.988,10.215,18.653,17.932,25.991c7.718,7.341,16.759,13.016,27.126,17.024
			c10.364,4.008,21.753,6.015,34.163,6.015c11.198,0,22.281-1.702,33.255-5.107c10.97-3.405,20.618-8.434,28.942-15.095v-63.332
			h-27.921v49.386c-3.221,1.86-6.51,3.38-9.874,4.525c-7.342,2.497-14.946,3.745-22.813,3.745c-8.477,0-16.195-1.362-23.153-4.086
			c-6.962-2.724-13.017-6.618-18.159-11.691c-5.147-5.068-9.119-11.009-11.918-17.819c-2.802-6.81-4.199-14.222-4.199-22.245
			c0-8.172,1.397-15.663,4.199-22.473C932.975,1259.479,936.947,1253.577,942.094,1248.584z"/>
		<path style="fill:#0A3C26;" d="M1107.115,1264.752v-17.757h-27.012v121.214h28.375v-58.792c0-12.406,3.178-21.752,9.534-28.033
			c6.355-6.278,14.903-9.42,25.65-9.42c1.057,0,2.117,0.039,3.178,0.113c1.057,0.078,2.192,0.266,3.405,0.568v-27.012
			c-11.654,0-21.376,2.121-29.168,6.355C1115.262,1255.149,1110.612,1259.405,1107.115,1264.752z"/>
		<path style="fill:#0A3C26;" d="M1257.386,1253.35c-9.232-5.142-19.748-7.717-31.552-7.717c-12.108,0-22.891,2.649-32.346,7.944
			c-9.46,5.299-16.875,12.598-22.246,21.905c-5.374,9.307-8.058,20.014-8.058,32.12c0,11.956,2.759,22.625,8.285,32.006
			c5.523,9.385,13.314,16.762,23.38,22.132c10.062,5.374,21.827,8.058,35.297,8.058c10.591,0,20.011-1.702,28.26-5.107
			c8.246-3.405,15.095-8.285,20.543-14.641l-15.209-17.479c-4.239,4.54-9.08,7.87-14.528,9.988
			c-5.448,2.121-11.577,3.178-18.386,3.178c-7.87,0-14.833-1.511-20.883-4.54c-6.055-3.026-10.747-7.338-14.074-12.939
			c-2.099-3.526-3.532-7.387-4.308-11.577h95.106c0.149-1.362,0.262-2.798,0.34-4.313c0.074-1.511,0.114-2.873,0.114-4.086
			c0-12.712-2.65-23.756-7.945-33.141C1273.878,1265.761,1266.614,1258.497,1257.386,1253.35z M1195.303,1285.47
			c2.951-5.37,7.037-9.569,12.257-12.598c5.221-3.026,11.311-4.54,18.273-4.54c6.81,0,12.825,1.514,18.047,4.54
			c5.22,3.029,9.342,7.189,12.371,12.484c2.138,3.745,3.465,7.912,4.017,12.485h-68.934
			C1191.972,1293.279,1193.283,1289.148,1195.303,1285.47z"/>
		<path style="fill:#0A3C26;" d="M1398.575,1253.35c-9.232-5.142-19.748-7.717-31.552-7.717c-12.109,0-22.891,2.649-32.346,7.944
			c-9.46,5.299-16.875,12.598-22.246,21.905c-5.374,9.307-8.058,20.014-8.058,32.12c0,11.956,2.759,22.625,8.285,32.006
			c5.522,9.385,13.314,16.762,23.38,22.132c10.062,5.374,21.827,8.058,35.297,8.058c10.591,0,20.011-1.702,28.26-5.107
			c8.246-3.405,15.095-8.285,20.543-14.641l-15.209-17.479c-4.239,4.54-9.08,7.87-14.528,9.988
			c-5.448,2.121-11.576,3.178-18.386,3.178c-7.87,0-14.833-1.511-20.883-4.54c-6.054-3.026-10.747-7.338-14.074-12.939
			c-2.099-3.526-3.532-7.387-4.308-11.577h95.106c0.149-1.362,0.262-2.798,0.34-4.313c0.074-1.511,0.114-2.873,0.114-4.086
			c0-12.712-2.65-23.756-7.945-33.141C1415.067,1265.761,1407.803,1258.497,1398.575,1253.35z M1336.492,1285.47
			c2.951-5.37,7.037-9.569,12.257-12.598c5.221-3.026,11.311-4.54,18.273-4.54c6.81,0,12.825,1.514,18.046,4.54
			c5.221,3.029,9.342,7.189,12.371,12.484c2.138,3.745,3.465,7.912,4.017,12.485h-68.934
			C1333.161,1293.279,1334.472,1289.148,1336.492,1285.47z"/>
		<path style="fill:#0A3C26;" d="M1550.318,1251.307c-7.643-3.781-16.308-5.674-25.991-5.674c-10.594,0-19.94,2.082-28.034,6.242
			c-5.464,2.81-10.028,6.447-13.733,10.874v-15.754h-27.012v121.214h28.375v-61.288c0-8.172,1.397-14.943,4.199-20.316
			c2.798-5.37,6.771-9.42,11.917-12.144c5.143-2.724,11.045-4.086,17.706-4.086c9.08,0,16.151,2.65,21.224,7.945
			c5.069,5.299,7.604,13.318,7.604,24.061v65.828h28.373v-69.46c0-12.258-2.195-22.281-6.581-30.077
			C1563.972,1260.88,1557.958,1255.092,1550.318,1251.307z"/>
		<polygon style="fill:#0A3C26;" points="1725.67,1316.892 1638.051,1209.314 1613.762,1209.314 1613.762,1368.209 
			1643.045,1368.209 1643.045,1260.631 1730.664,1368.209 1754.953,1368.209 1754.953,1209.314 1725.67,1209.314 		"/>
		<path style="fill:#0A3C26;" d="M1879.117,1253.35c-9.233-5.142-19.748-7.717-31.552-7.717c-12.109,0-22.891,2.649-32.346,7.944
			c-9.46,5.299-16.875,12.598-22.246,21.905c-5.373,9.307-8.057,20.014-8.057,32.12c0,11.956,2.759,22.625,8.284,32.006
			c5.523,9.385,13.315,16.762,23.381,22.132c10.062,5.374,21.827,8.058,35.297,8.058c10.591,0,20.011-1.702,28.262-5.107
			c8.246-3.405,15.095-8.285,20.542-14.641l-15.209-17.479c-4.238,4.54-9.079,7.87-14.527,9.988
			c-5.449,2.121-11.577,3.178-18.388,3.178c-7.87,0-14.832-1.511-20.883-4.54c-6.054-3.026-10.746-7.338-14.074-12.939
			c-2.098-3.526-3.532-7.387-4.308-11.577h95.106c0.149-1.362,0.262-2.798,0.34-4.313c0.074-1.511,0.114-2.873,0.114-4.086
			c0-12.712-2.649-23.756-7.945-33.141C1895.609,1265.761,1888.346,1258.497,1879.117,1253.35z M1817.034,1285.47
			c2.951-5.37,7.036-9.569,12.258-12.598c5.221-3.026,11.311-4.54,18.272-4.54c6.811,0,12.825,1.514,18.047,4.54
			c5.22,3.029,9.342,7.189,12.371,12.484c2.138,3.745,3.465,7.912,4.017,12.485h-68.934
			C1813.703,1293.279,1815.015,1289.148,1817.034,1285.47z"/>
		<path style="fill:#0A3C26;" d="M2013.61,1305.9c-4.465-2.345-9.346-4.2-14.641-5.562c-5.3-1.362-10.633-2.383-16.004-3.064
			c-5.373-0.681-10.254-1.551-14.641-2.611c-4.391-1.057-7.944-2.497-10.669-4.313c-2.724-1.816-4.086-4.54-4.086-8.172
			c0-3.934,2.079-7.186,6.243-9.761c4.16-2.572,10.555-3.859,19.181-3.859c5.749,0,11.537,0.645,17.365,1.929
			c5.823,1.288,11.612,3.671,17.365,7.15l10.895-21.564c-5.448-3.327-12.335-5.902-20.656-7.718
			c-8.324-1.816-16.571-2.724-24.742-2.724c-10.896,0-20.316,1.553-28.262,4.653c-7.944,3.104-14.112,7.491-18.499,13.166
			c-4.391,5.674-6.583,12.371-6.583,20.089c0,6.962,1.363,12.563,4.087,16.798c2.724,4.239,6.277,7.604,10.668,10.101
			c4.388,2.497,9.268,4.391,14.642,5.675c5.37,1.287,10.743,2.309,16.117,3.064c5.37,0.759,10.25,1.589,14.641,2.497
			c4.387,0.908,7.945,2.234,10.669,3.972c2.724,1.741,4.086,4.278,4.086,7.604c0,4.086-2.008,7.342-6.016,9.761
			c-4.011,2.422-10.481,3.632-19.408,3.632c-7.568,0-15.134-1.135-22.699-3.405c-7.568-2.27-14.074-5.143-19.521-8.626
			l-10.896,21.565c5.449,3.784,12.826,7.001,22.132,9.647c9.307,2.646,19.029,3.972,29.168,3.972c11.35,0,21.111-1.553,29.282-4.653
			c8.172-3.1,14.488-7.452,18.954-13.052c4.462-5.596,6.696-12.179,6.696-19.748c0-6.81-1.363-12.333-4.087-16.571
			C2021.668,1311.539,2018.072,1308.248,2013.61,1305.9z"/>
		<path style="fill:#0A3C26;" d="M2117.913,1341.424c-4.238,3.33-9.534,4.993-15.89,4.993c-5.298,0-9.42-1.589-12.371-4.766
			c-2.951-3.178-4.427-7.64-4.427-13.393v-57.656h32.46v-22.699h-32.46v-27.693h-28.375v27.693h-19.975v22.699h19.975v58.337
			c0,13.471,3.633,23.646,10.896,30.531c7.263,6.888,17.553,10.328,30.871,10.328c5.143,0,10.136-0.681,14.982-2.043
			c4.841-1.362,8.927-3.405,12.257-6.129L2117.913,1341.424z"/>
	</g>
</g>
</svg>
